<?xml version="1.0" encoding="UTF-8" standalone="no"?>
<!DOCTYPE svg PUBLIC "-//W3C//DTD SVG 1.1//EN" "http://www.w3.org/Graphics/SVG/1.1/DTD/svg11.dtd">
<svg width="100%" height="100%" viewBox="0 0 256 256" version="1.1" xmlns="http://www.w3.org/2000/svg" xmlns:xlink="http://www.w3.org/1999/xlink" xml:space="preserve" xmlns:serif="http://www.serif.com/" style="fill-rule:evenodd;clip-rule:evenodd;stroke-linejoin:round;stroke-miterlimit:2;">
    <g transform="matrix(0.100787,0,0,0.100787,-23.1807,-23.1811)">
        <g transform="matrix(1.0574,0,0,0.898796,-86.1108,406.903)">
            <path d="M395.451,2396.69L395.451,262.725C395.449,134.325 483.926,30.236 593.065,30.236L707.152,30.236L707.152,1.509C707.152,-51.091 724.913,-101.538 756.528,-138.733C788.143,-175.927 831.023,-196.823 875.734,-196.823L1010.67,-196.823C1055.38,-196.823 1098.26,-175.928 1129.87,-138.734C1161.49,-101.539 1179.25,-51.092 1179.25,1.509L1179.25,30.236L1820.75,30.236L1820.75,1.509C1820.75,-51.092 1838.51,-101.539 1870.13,-138.734C1901.74,-175.928 1944.62,-196.823 1989.33,-196.823L2124.27,-196.823C2168.98,-196.823 2211.86,-175.928 2243.47,-138.734C2275.09,-101.539 2292.85,-51.092 2292.85,1.509L2292.85,30.236L2406.93,30.236C2516.08,30.236 2604.55,134.325 2604.55,262.723L2604.55,2396.69C2604.55,2525.09 2516.08,2629.18 2406.93,2629.18L593.065,2629.18C483.926,2629.18 395.449,2525.09 395.451,2396.69Z" style="fill:rgb(255,198,64);"/>
        </g>
        <g transform="matrix(1.0574,0,0,0.898796,-86.1108,406.903)">
            <path d="M444.274,2396.69L444.274,262.724C444.273,166.047 510.89,87.675 593.065,87.675L755.975,87.675L755.975,1.509C755.975,-35.858 768.592,-71.695 791.051,-98.118C813.51,-124.54 843.972,-139.384 875.734,-139.384L1010.67,-139.384C1042.43,-139.384 1072.89,-124.54 1095.35,-98.118C1117.81,-71.695 1130.43,-35.858 1130.43,1.509L1130.43,87.675L1869.57,87.675L1869.57,1.509C1869.57,-35.858 1882.19,-71.695 1904.65,-98.118C1927.11,-124.54 1957.57,-139.384 1989.33,-139.384L2124.27,-139.384C2156.03,-139.384 2186.49,-124.54 2208.95,-98.118C2231.41,-71.695 2244.03,-35.858 2244.03,1.509L2244.03,87.675L2406.93,87.675C2489.11,87.675 2555.73,166.047 2555.73,262.723L2555.73,2396.69C2555.73,2493.37 2489.11,2571.74 2406.93,2571.74L593.065,2571.74C510.89,2571.74 444.273,2493.37 444.274,2396.69Z" style="fill:rgb(25,19,77);"/>
        </g>
        <g transform="matrix(0.959348,0,0,0.959348,60.9774,60.9758)">
            <g transform="matrix(1.10221,0,0,0.936882,-153.321,360.586)">
                <path d="M2465,1953.54L2465,2396.69C2465,2434.42 2439,2465 2406.93,2465L593.065,2465C560.997,2465 535,2434.42 535,2396.69L535,1953.54L2465,1953.54Z" style="fill:rgb(111,173,255);"/>
            </g>
            <g transform="matrix(1.10221,0,0,0.661328,-153.321,614.371)">
                <rect x="535" y="1708.4" width="1930" height="756.604" style="fill:rgb(74,145,255);"/>
            </g>
            <g transform="matrix(1.10221,0,0,0.440886,-153.321,732.308)">
                <rect x="535" y="1415.05" width="1930" height="1049.95" style="fill:rgb(83,111,250);"/>
            </g>
            <g transform="matrix(1.10221,0,0,0.220443,-153.321,850.245)">
                <rect x="535" y="535" width="1930" height="1930" style="fill:rgb(100,89,246);"/>
            </g>
            <g transform="matrix(1.10221,0,0,0.0990052,-153.321,802.733)">
                <rect x="535" y="535" width="1930" height="1930" style="fill:rgb(79,71,195);"/>
            </g>
        </g>
        <g transform="matrix(0.959348,0,0,0.959348,60.9774,60.9758)">
            <g transform="matrix(0.869313,0,0,0.869313,248.19,-155.987)">
                <circle cx="1440" cy="2272" r="798" style="fill:rgb(255,157,64);"/>
            </g>
            <g transform="matrix(0.769062,0,0,0.769062,392.551,71.782)">
                <circle cx="1440" cy="2272" r="798" style="fill:rgb(255,173,60);"/>
            </g>
            <g transform="matrix(0.680372,0,0,0.680372,520.264,273.285)">
                <circle cx="1440" cy="2272" r="798" style="fill:rgb(255,198,64);"/>
            </g>
        </g>
        <g transform="matrix(1.0574,0,0,0.211482,-86.1108,468.497)">
            <path d="M2406.93,535C2439,535 2465,664.983 2465,825.325L2465,2465L535,2465L535,825.325C535,664.983 560.997,535 593.065,535L2406.93,535Z" style="fill:rgb(255,198,64);"/>
        </g>
        <g transform="matrix(0.959348,0,0,0.959348,60.9774,60.9758)">
            <g transform="matrix(1.34982e-17,0.220443,-0.110221,6.74911e-18,1051.62,212.063)">
                <path d="M2319.84,535C2358.34,535 2395.26,565.588 2422.48,620.034C2449.71,674.481 2465,748.326 2465,825.325L2465,2174.68C2465,2251.67 2449.71,2325.52 2422.48,2379.97C2395.26,2434.41 2358.34,2465 2319.84,2465L680.162,2465C641.663,2465 604.74,2434.41 577.517,2379.97C550.294,2325.52 535,2251.67 535,2174.68L535,825.325C535,748.326 550.294,674.481 577.517,620.034C604.74,565.588 641.663,535 680.162,535L2319.84,535ZM2319.84,-10601C2358.34,-10601 2395.26,-10570.4 2422.48,-10515.9C2449.71,-10461.5 2465,-10387.7 2465,-10310.7L2465,-8961.3C2465,-8884.31 2449.71,-8810.46 2422.48,-8756.01C2395.26,-8701.57 2358.34,-8670.98 2319.84,-8670.98L680.162,-8670.98C641.663,-8670.98 604.74,-8701.57 577.517,-8756.01C550.294,-8810.46 535,-8884.31 535,-8961.3L535,-10310.7C535,-10387.7 550.294,-10461.5 577.517,-10515.9C604.74,-10570.4 641.663,-10601 680.162,-10601L2319.84,-10601Z" style="fill:rgb(80,80,80);"/>
            </g>
            <g transform="matrix(1.10221,0,0,1.10221,-153.321,-46.9571)">
                <path d="M1039.7,658L1039.7,698.968C1039.7,706.667 1036.64,714.052 1031.2,719.497C1025.75,724.941 1018.37,728 1010.67,728L875.734,728C868.034,728 860.649,724.941 855.204,719.497C849.76,714.052 846.701,706.667 846.701,698.968L846.701,658L1039.7,658ZM2153.3,658L2153.3,698.968C2153.3,706.667 2150.24,714.052 2144.8,719.497C2139.35,724.941 2131.97,728 2124.27,728L1989.33,728C1981.63,728 1974.25,724.941 1968.8,719.497C1963.36,714.052 1960.3,706.667 1960.3,698.968L1960.3,658L2153.3,658Z" style="fill:rgb(63,63,63);"/>
            </g>
        </g>
    </g>
</svg>
